<?xml version="1.0" encoding="UTF-8" ?>
<!DOCTYPE svg PUBLIC "-//W3C//DTD SVG 1.1//EN" "http://www.w3.org/Graphics/SVG/1.1/DTD/svg11.dtd">
<svg width="500pt" height="300pt" viewBox="0 0 500 300" version="1.1" xmlns="http://www.w3.org/2000/svg">
<path fill="#ffffff" d=" M 0.00 0.00 L 4.91 0.00 C 2.10 12.97 0.77 26.22 0.00 39.45 L 0.00 0.00 Z" />
<path fill="#f4ec57" d=" M 4.91 0.00 L 30.05 0.00 C 21.78 35.98 22.70 74.03 32.38 109.65 C 43.65 151.12 67.21 189.14 99.21 217.81 C 124.36 240.46 154.67 257.34 187.19 266.73 C 225.31 277.73 266.32 278.46 304.81 268.87 C 357.20 255.99 404.31 223.34 435.06 179.06 C 454.42 151.37 467.47 119.27 472.73 85.89 C 477.22 57.44 476.41 28.10 469.99 0.00 L 495.07 0.00 C 497.93 12.99 499.23 26.27 500.00 39.54 L 500.00 60.50 C 497.92 109.71 481.10 158.22 451.82 197.87 C 417.38 245.07 365.92 279.57 309.05 293.14 C 293.14 297.01 276.86 299.16 260.52 300.00 L 239.45 300.00 C 204.81 298.41 170.46 289.87 139.37 274.44 C 103.20 256.61 71.47 229.87 47.74 197.26 C 18.72 157.73 2.07 109.46 0.00 60.50 L 0.00 39.45 C 0.77 26.22 2.10 12.97 4.91 0.00 Z" />
<path fill="#cadc6a" d=" M 30.05 0.00 L 55.30 0.00 C 45.95 36.20 47.06 75.02 58.30 110.66 C 69.24 145.32 89.81 176.86 117.11 200.85 C 140.63 221.58 169.04 236.75 199.41 244.58 C 235.02 253.81 273.17 253.07 308.38 242.40 C 343.93 231.66 376.33 210.78 400.84 182.89 C 418.92 162.39 432.77 138.17 441.21 112.17 C 452.91 76.11 454.18 36.71 444.69 0.00 L 469.99 0.00 C 476.41 28.10 477.22 57.44 472.73 85.89 C 467.47 119.27 454.42 151.37 435.06 179.06 C 404.31 223.34 357.20 255.99 304.81 268.87 C 266.32 278.46 225.31 277.73 187.19 266.73 C 154.67 257.34 124.36 240.46 99.21 217.81 C 67.21 189.14 43.65 151.12 32.38 109.65 C 22.70 74.03 21.78 35.98 30.05 0.00 Z" />
<path fill="#86bba0" d=" M 55.30 0.00 L 80.82 0.00 C 70.17 35.51 71.33 74.41 83.78 109.31 C 94.56 139.65 113.88 166.87 138.92 187.11 C 160.91 204.97 187.26 217.44 215.05 222.95 C 250.06 230.04 287.23 226.24 320.00 212.00 C 352.88 197.89 381.14 173.41 399.98 143.01 C 426.32 100.97 433.58 47.47 419.13 0.00 L 444.69 0.00 C 454.18 36.71 452.91 76.11 441.21 112.17 C 432.77 138.17 418.92 162.39 400.84 182.89 C 376.33 210.78 343.93 231.66 308.38 242.40 C 273.17 253.07 235.02 253.81 199.41 244.58 C 169.04 236.75 140.63 221.58 117.11 200.85 C 89.81 176.86 69.24 145.32 58.30 110.66 C 47.06 75.02 45.95 36.20 55.30 0.00 Z" />
<path fill="#8a91a6" d=" M 80.82 0.00 L 106.59 0.00 C 97.42 26.04 95.81 54.62 101.44 81.61 C 108.12 113.64 125.66 143.24 150.38 164.64 C 177.16 188.07 212.42 201.60 248.03 201.78 C 278.25 202.34 308.56 193.48 333.71 176.72 C 359.70 159.64 380.16 134.34 391.45 105.37 C 402.77 76.61 404.81 44.36 397.65 14.33 C 396.39 9.53 395.09 4.75 393.68 0.00 L 419.13 0.00 C 433.58 47.47 426.32 100.97 399.98 143.01 C 381.14 173.41 352.88 197.89 320.00 212.00 C 287.23 226.24 250.06 230.04 215.05 222.95 C 187.26 217.44 160.91 204.97 138.92 187.11 C 113.88 166.87 94.56 139.65 83.78 109.31 C 71.33 74.41 70.17 35.51 80.82 0.00 Z" />
<path fill="#705087" d=" M 106.59 0.00 L 132.96 0.00 C 122.25 24.66 119.95 52.82 126.05 78.97 C 132.24 106.15 147.85 130.98 169.44 148.56 C 193.41 168.42 224.94 178.69 256.00 177.13 C 283.77 175.91 311.07 165.29 332.19 147.18 C 353.40 129.36 368.52 104.42 374.33 77.31 C 379.92 51.63 377.56 24.12 367.00 0.00 L 393.68 0.00 C 395.09 4.75 396.39 9.53 397.65 14.33 C 404.81 44.36 402.77 76.61 391.45 105.37 C 380.16 134.34 359.70 159.64 333.71 176.72 C 308.56 193.48 278.25 202.34 248.03 201.78 C 212.42 201.60 177.16 188.07 150.38 164.64 C 125.66 143.24 108.12 113.64 101.44 81.61 C 95.81 54.62 97.42 26.04 106.59 0.00 Z" />
<path fill="#573769" d=" M 132.96 0.00 L 160.48 0.00 C 149.24 20.17 144.96 44.27 148.98 67.04 C 152.83 90.98 165.70 113.26 184.33 128.74 C 198.39 140.47 215.62 148.34 233.72 151.13 C 258.31 155.19 284.43 149.86 305.33 136.25 C 325.88 123.28 341.38 102.60 348.21 79.29 C 354.06 59.78 353.93 38.55 347.72 19.15 C 345.68 12.53 342.79 6.22 339.78 0.00 L 367.00 0.00 C 377.56 24.12 379.92 51.63 374.33 77.31 C 368.52 104.42 353.40 129.36 332.19 147.18 C 311.07 165.29 283.77 175.91 256.00 177.13 C 224.94 178.69 193.41 168.42 169.44 148.56 C 147.85 130.98 132.24 106.15 126.05 78.97 C 119.95 52.82 122.25 24.66 132.96 0.00 Z" />
<path fill="#302663" d=" M 160.48 0.00 L 339.78 0.00 C 342.79 6.22 345.68 12.53 347.72 19.15 C 353.93 38.55 354.06 59.78 348.21 79.29 C 341.38 102.60 325.88 123.28 305.33 136.25 C 284.43 149.86 258.31 155.19 233.72 151.13 C 215.62 148.34 198.39 140.47 184.33 128.74 C 165.70 113.26 152.83 90.98 148.98 67.04 C 144.96 44.27 149.24 20.17 160.48 0.00 Z" />
<path fill="#ffffff" d=" M 495.07 0.00 L 500.00 0.00 L 500.00 39.54 C 499.23 26.27 497.93 12.99 495.07 0.00 Z" />
<path fill="#ffffff" d=" M 236.05 15.21 C 244.62 11.75 254.38 11.79 263.08 14.81 C 262.65 15.28 261.79 16.22 261.36 16.69 C 260.50 16.54 258.79 16.25 257.94 16.10 C 256.97 16.73 256.01 17.35 255.05 17.97 C 254.30 17.88 252.79 17.71 252.04 17.63 C 250.66 19.27 249.29 21.06 247.10 21.63 C 247.54 20.18 247.97 18.72 248.38 17.26 C 244.28 17.64 240.47 19.20 237.10 21.52 C 240.50 22.37 245.14 22.50 246.75 26.27 C 248.20 30.04 245.92 33.81 244.37 37.15 C 239.30 30.90 233.92 24.60 226.86 20.55 L 228.45 20.64 L 228.66 19.26 C 229.15 19.46 230.12 19.84 230.61 20.04 L 230.30 18.36 L 231.94 18.76 L 231.84 16.46 C 232.12 17.43 232.69 19.38 232.97 20.36 C 232.62 18.11 234.03 15.93 236.05 15.21 Z" />
<path fill="#24aae0" d=" M 263.08 14.81 C 271.96 18.24 279.61 24.88 283.70 33.54 C 281.32 32.13 278.98 30.66 276.68 29.11 C 274.84 31.31 273.41 34.35 274.84 37.16 C 275.81 37.80 276.82 38.39 277.86 38.93 C 278.66 38.17 279.46 37.42 280.26 36.66 C 280.93 38.46 281.59 40.25 282.25 42.05 C 282.65 40.83 283.45 38.38 283.86 37.15 C 284.21 39.27 285.75 41.80 283.86 43.63 C 281.25 44.94 279.06 42.17 277.02 40.91 C 273.98 38.16 269.69 35.81 265.58 37.68 C 262.00 39.66 261.64 44.39 261.94 48.03 C 262.10 52.56 266.23 55.29 267.99 59.14 C 268.26 60.72 267.74 62.29 267.59 63.86 C 258.40 56.33 251.76 46.32 244.37 37.15 C 245.92 33.81 248.20 30.04 246.75 26.27 C 245.14 22.50 240.50 22.37 237.10 21.52 C 240.47 19.20 244.28 17.64 248.38 17.26 C 247.97 18.72 247.54 20.18 247.10 21.63 C 249.29 21.06 250.66 19.27 252.04 17.63 C 252.79 17.71 254.30 17.88 255.05 17.97 C 256.01 17.35 256.97 16.73 257.94 16.10 C 258.79 16.25 260.50 16.54 261.36 16.69 C 261.79 16.22 262.65 15.28 263.08 14.81 Z" />
<path fill="#f4ec57" d=" M 194.94 25.98 C 202.21 16.46 216.77 14.41 226.86 20.55 C 233.92 24.60 239.30 30.90 244.37 37.15 C 251.76 46.32 258.40 56.33 267.59 63.86 C 271.60 67.21 276.28 69.71 281.30 71.17 C 285.70 72.03 290.80 72.42 294.57 69.53 C 297.67 67.29 298.71 62.70 296.61 59.44 C 294.80 55.95 290.85 54.71 287.37 53.63 C 287.47 51.48 287.46 49.33 287.43 47.18 C 291.77 47.94 296.23 49.31 299.42 52.54 C 305.17 57.86 305.96 68.44 299.64 73.64 C 293.40 78.84 284.55 78.45 277.17 76.31 C 272.13 74.77 267.55 71.99 263.52 68.62 C 254.15 60.81 247.15 50.73 239.56 41.30 C 234.51 35.09 229.11 28.87 222.00 24.95 C 215.75 21.82 207.56 22.41 202.45 27.43 C 198.10 31.40 196.50 38.77 200.35 43.61 C 203.16 47.46 208.07 48.43 212.46 49.24 C 212.49 51.37 212.62 53.49 212.83 55.61 C 206.81 55.19 200.57 53.17 196.58 48.41 C 191.32 42.38 189.74 32.53 194.94 25.98 Z" />
<path fill="#ffffff" d=" M 248.23 24.18 C 249.36 22.56 251.01 21.58 252.91 21.15 C 252.38 23.40 250.48 24.33 248.23 24.18 Z" />
<path fill="#302663" d=" M 202.45 27.43 C 207.56 22.41 215.75 21.82 222.00 24.95 C 219.12 28.52 216.42 32.33 214.86 36.68 C 213.36 40.70 212.58 44.96 212.46 49.24 C 208.07 48.43 203.16 47.46 200.35 43.61 C 196.50 38.77 198.10 31.40 202.45 27.43 Z" />
<path fill="#ffffff" d=" M 222.00 24.95 C 229.11 28.87 234.51 35.09 239.56 41.30 C 233.10 46.89 225.70 52.96 224.39 61.96 C 223.50 66.12 225.69 69.83 227.98 73.08 C 225.75 72.44 223.35 72.09 221.35 70.85 C 218.64 68.74 217.45 65.28 216.87 62.02 C 216.20 57.60 218.64 53.39 218.21 48.99 C 217.03 44.89 213.86 41.22 214.86 36.68 C 216.42 32.33 219.12 28.52 222.00 24.95 Z" />
<path fill="#ffffff" d=" M 274.84 37.16 C 273.41 34.35 274.84 31.31 276.68 29.11 C 278.98 30.66 281.32 32.13 283.70 33.54 L 283.85 33.63 C 285.68 37.94 287.19 42.47 287.43 47.18 C 287.46 49.33 287.47 51.48 287.37 53.63 C 286.94 59.91 284.57 65.86 281.30 71.17 C 276.28 69.71 271.60 67.21 267.59 63.86 C 267.74 62.29 268.26 60.72 267.99 59.14 C 266.23 55.29 262.10 52.56 261.94 48.03 C 261.64 44.39 262.00 39.66 265.58 37.68 C 269.69 35.81 273.98 38.16 277.02 40.91 C 279.06 42.17 281.25 44.94 283.86 43.63 C 285.75 41.80 284.21 39.27 283.86 37.15 C 283.45 38.38 282.65 40.83 282.25 42.05 C 281.59 40.25 280.93 38.46 280.26 36.66 C 279.46 37.42 278.66 38.17 277.86 38.93 C 276.82 38.39 275.81 37.80 274.84 37.16 Z" />
<path fill="#24aae0" d=" M 212.46 49.24 C 212.58 44.96 213.36 40.70 214.86 36.68 C 213.86 41.22 217.03 44.89 218.21 48.99 C 218.64 53.39 216.20 57.60 216.87 62.02 C 217.45 65.28 218.64 68.74 221.35 70.85 C 223.35 72.09 225.75 72.44 227.98 73.08 C 225.69 69.83 223.50 66.12 224.39 61.96 C 225.70 52.96 233.10 46.89 239.56 41.30 C 247.15 50.73 254.15 60.81 263.52 68.62 C 261.67 71.39 258.10 74.50 259.80 78.18 C 262.02 82.21 267.16 82.24 271.09 81.27 C 257.71 90.59 238.34 89.67 225.94 79.06 C 218.89 73.22 214.05 64.70 212.83 55.61 C 212.62 53.49 212.49 51.37 212.46 49.24 Z" />
<path fill="#302663" d=" M 281.30 71.17 C 284.57 65.86 286.94 59.91 287.37 53.63 C 290.85 54.71 294.80 55.95 296.61 59.44 C 298.71 62.70 297.67 67.29 294.57 69.53 C 290.80 72.42 285.70 72.03 281.30 71.17 Z" />
<path fill="#ffffff" d=" M 0.00 60.50 C 2.07 109.46 18.72 157.73 47.74 197.26 C 71.47 229.87 103.20 256.61 139.37 274.44 C 170.46 289.87 204.81 298.41 239.45 300.00 L 0.00 300.00 L 0.00 60.50 Z" />
<path fill="#ffffff" d=" M 451.82 197.87 C 481.10 158.22 497.92 109.71 500.00 60.50 L 500.00 300.00 L 260.52 300.00 C 276.86 299.16 293.14 297.01 309.05 293.14 C 365.92 279.57 417.38 245.07 451.82 197.87 Z" />
<path fill="#ffffff" d=" M 263.52 68.62 C 267.55 71.99 272.13 74.77 277.17 76.31 C 275.20 78.03 273.28 79.82 271.09 81.27 C 267.16 82.24 262.02 82.21 259.80 78.18 C 258.10 74.50 261.67 71.39 263.52 68.62 Z" />
</svg>
