<?xml version="1.0" encoding="utf-8"?>
<!-- Generator: Adobe Illustrator 16.0.0, SVG Export Plug-In . SVG Version: 6.00 Build 0)  -->
<!DOCTYPE svg PUBLIC "-//W3C//DTD SVG 1.1//EN" "http://www.w3.org/Graphics/SVG/1.1/DTD/svg11.dtd">
<svg version="1.1" id="Ebene_1" xmlns="http://www.w3.org/2000/svg" xmlns:xlink="http://www.w3.org/1999/xlink" x="0px" y="0px"
	 width="500px" height="300px" viewBox="0 0 500 300" enable-background="new 0 0 500 300" xml:space="preserve">
<path fill="#F4EC57" fill-opacity="0"   d="M0,0h4.91C2.1,12.97,0.77,26.22,0,39.45V0z"/>
<path fill="#F4EC57" fill-opacity="0"   d="M4.91,0h25.14c-8.271,35.98-7.35,74.03,2.33,109.65c11.27,41.47,34.83,79.491,66.83,108.161
	c25.149,22.649,55.46,39.529,87.979,48.92c38.12,11,79.13,11.729,117.62,2.14c52.39-12.88,99.5-45.53,130.25-89.81
	c19.36-27.69,32.41-59.791,37.67-93.17c4.49-28.45,3.68-57.79-2.74-85.89h25.08c2.86,12.99,4.16,26.27,4.931,39.54V60.5
	c-2.08,49.21-18.9,97.72-48.181,137.37c-34.439,47.2-85.899,81.7-142.77,95.271c-15.91,3.869-32.19,6.02-48.53,6.859H239.45
	c-34.641-1.59-68.99-10.13-100.08-25.561c-36.17-17.83-67.9-44.569-91.63-77.18C18.72,157.73,2.07,109.46,0,60.5V39.45
	C0.77,26.22,2.1,12.97,4.91,0z"/>
<path fill="#CADC6A" d="M30.05,0H55.3c-9.35,36.2-8.24,75.02,3,110.66c10.94,34.66,31.51,66.199,58.81,90.189
	c23.521,20.73,51.931,35.9,82.301,43.73c35.609,9.23,73.76,8.49,108.97-2.18c35.55-10.74,67.949-31.62,92.46-59.51
	c18.08-20.5,31.93-44.721,40.37-70.721C452.909,76.11,454.18,36.71,444.69,0h25.3c6.42,28.1,7.23,57.44,2.74,85.89
	c-5.26,33.38-18.31,65.48-37.67,93.17c-30.75,44.279-77.86,76.93-130.25,89.81c-38.49,9.59-79.5,8.86-117.62-2.14
	c-32.52-9.391-62.83-26.271-87.979-48.92c-32-28.67-55.561-66.69-66.83-108.161C22.7,74.03,21.78,35.98,30.05,0z"/>
<path fill="#86BBA0" d="M55.3,0h25.52C70.17,35.51,71.33,74.41,83.78,109.31c10.78,30.34,30.101,57.56,55.141,77.799
	c21.99,17.86,48.34,30.33,76.13,35.841c35.01,7.09,72.18,3.29,104.95-10.95c32.88-14.109,61.14-38.59,79.979-68.99
	c26.34-42.04,33.6-95.54,19.15-143.01h25.56c9.49,36.71,8.22,76.11-3.479,112.17c-8.44,26-22.29,50.221-40.37,70.721
	c-24.511,27.89-56.91,48.77-92.46,59.51c-35.21,10.67-73.36,11.41-108.97,2.18c-30.37-7.83-58.78-23-82.301-43.73
	c-27.3-23.99-47.869-55.53-58.81-90.189C47.06,75.02,45.95,36.2,55.3,0z"/>
<path fill="#8A91A6" d="M80.82,0h25.771c-9.17,26.04-10.78,54.62-5.15,81.61c6.681,32.03,24.221,61.63,48.94,83.031
	c26.78,23.43,62.04,36.959,97.649,37.14c30.221,0.56,60.53-8.3,85.681-25.061c25.989-17.079,46.449-42.38,57.739-71.35
	c11.32-28.76,13.36-61.01,6.2-91.04c-1.26-4.8-2.56-9.58-3.97-14.33h25.45c14.449,47.47,7.189,100.97-19.15,143.01
	c-18.84,30.4-47.1,54.881-79.979,68.99c-32.771,14.24-69.94,18.04-104.95,10.95c-27.79-5.511-54.14-17.98-76.13-35.841
	C113.88,166.87,94.56,139.65,83.78,109.31C71.33,74.41,70.17,35.51,80.82,0z"/>
<path fill="#705087" d="M106.59,0h26.37c-10.71,24.66-13.01,52.82-6.91,78.97c6.19,27.18,21.8,52.01,43.39,69.59
	c23.971,19.86,55.5,30.129,86.561,28.57c27.77-1.22,55.069-11.84,76.189-29.95c21.21-17.82,36.33-42.76,42.14-69.87
	C379.92,51.63,377.56,24.12,367,0h26.68c1.41,4.75,2.71,9.53,3.97,14.33c7.16,30.03,5.12,62.28-6.2,91.04
	c-11.29,28.97-31.75,54.271-57.739,71.35c-25.15,16.761-55.46,25.62-85.681,25.061c-35.609-0.181-70.869-13.71-97.649-37.14
	c-24.72-21.4-42.26-51-48.94-83.031C95.81,54.62,97.42,26.04,106.59,0z"/>
<path fill="#573769" d="M132.96,0h27.52c-11.239,20.17-15.52,44.27-11.5,67.04c3.851,23.94,16.721,46.22,35.351,61.7
	c14.06,11.729,31.29,19.6,49.39,22.39c24.59,4.06,50.71-1.27,71.609-14.88c20.551-12.97,36.051-33.65,42.881-56.96
	c5.85-19.51,5.72-40.74-0.49-60.14c-2.04-6.62-4.931-12.93-7.94-19.15H367c10.56,24.12,12.92,51.63,7.329,77.31
	c-5.81,27.11-20.93,52.05-42.14,69.87c-21.12,18.11-48.42,28.73-76.189,29.95c-31.061,1.56-62.59-8.71-86.561-28.57
	c-21.59-17.58-37.199-42.41-43.39-69.59C119.95,52.82,122.25,24.66,132.96,0z"/>
<path fill="#302663" d="M160.48,0h179.3c3.01,6.22,5.9,12.53,7.94,19.15c6.21,19.4,6.34,40.63,0.49,60.14
	c-6.83,23.31-22.33,43.99-42.881,56.96c-20.899,13.61-47.02,18.939-71.609,14.88c-18.1-2.79-35.33-10.66-49.39-22.39
	c-18.63-15.48-31.5-37.76-35.351-61.7C144.96,44.27,149.24,20.17,160.48,0z"/>
<path fill="#F4EC57" fill-opacity="0"   d="M495.07,0H500v39.54C499.23,26.27,497.93,12.99,495.07,0z"/>
<path fill="#FFFFFF" d="M236.05,15.21c8.57-3.46,18.33-3.42,27.03-0.4c-0.431,0.47-1.29,1.41-1.721,1.88
	c-0.859-0.15-2.569-0.44-3.42-0.59c-0.97,0.63-1.93,1.25-2.89,1.87c-0.75-0.09-2.26-0.26-3.01-0.34c-1.38,1.64-2.75,3.43-4.94,4
	c0.44-1.45,0.87-2.91,1.28-4.37c-4.101,0.38-7.91,1.94-11.28,4.26c3.4,0.85,8.04,0.98,9.65,4.75c1.45,3.77-0.83,7.54-2.38,10.88
	c-5.07-6.25-10.45-12.55-17.511-16.6l1.591,0.09l0.21-1.38c0.489,0.2,1.46,0.58,1.949,0.78l-0.31-1.68l1.64,0.4l-0.1-2.3
	c0.28,0.97,0.85,2.92,1.13,3.9C232.62,18.11,234.03,15.93,236.05,15.21z"/>
<path fill="#24AAE0" d="M263.08,14.81c8.88,3.43,16.529,10.07,20.62,18.73c-2.381-1.41-4.721-2.88-7.021-4.43
	c-1.84,2.2-3.27,5.24-1.84,8.05c0.97,0.64,1.979,1.23,3.02,1.77c0.801-0.76,1.601-1.51,2.4-2.27c0.67,1.8,1.33,3.59,1.99,5.39
	c0.399-1.22,1.2-3.67,1.609-4.9c0.351,2.12,1.891,4.65,0,6.48c-2.609,1.31-4.8-1.46-6.84-2.72c-3.04-2.75-7.33-5.1-11.439-3.23
	c-3.58,1.98-3.94,6.71-3.641,10.35c0.16,4.53,4.29,7.26,6.05,11.11c0.271,1.58-0.25,3.15-0.399,4.72
	c-9.19-7.53-15.83-17.54-23.22-26.71c1.55-3.34,3.83-7.11,2.38-10.88c-1.61-3.77-6.25-3.9-9.65-4.75c3.37-2.32,7.18-3.88,11.28-4.26
	c-0.41,1.46-0.84,2.92-1.28,4.37c2.19-0.57,3.561-2.36,4.94-4c0.75,0.08,2.26,0.25,3.01,0.34c0.96-0.62,1.92-1.24,2.89-1.87
	c0.851,0.15,2.561,0.44,3.42,0.59C261.79,16.22,262.65,15.28,263.08,14.81z"/>
<path fill="#F4EC57" d="M194.94,25.98c7.271-9.52,21.83-11.57,31.92-5.43c7.061,4.05,12.44,10.35,17.511,16.6
	c7.39,9.17,14.029,19.18,23.22,26.71c4.01,3.35,8.689,5.85,13.71,7.31c4.4,0.86,9.5,1.25,13.27-1.64
	c3.101-2.24,4.141-6.83,2.04-10.09c-1.81-3.49-5.76-4.73-9.239-5.81c0.1-2.15,0.09-4.3,0.06-6.45c4.34,0.76,8.8,2.13,11.99,5.36
	c5.75,5.32,6.54,15.9,0.22,21.1c-6.24,5.2-15.09,4.81-22.47,2.67c-5.04-1.54-9.62-4.32-13.65-7.69
	c-9.37-7.81-16.37-17.89-23.96-27.32c-5.05-6.21-10.45-12.43-17.56-16.35c-6.25-3.13-14.44-2.54-19.55,2.48
	c-4.351,3.97-5.95,11.34-2.101,16.18c2.811,3.85,7.72,4.82,12.11,5.63c0.03,2.13,0.16,4.25,0.37,6.37
	c-6.021-0.42-12.261-2.44-16.25-7.2C191.32,42.38,189.74,32.53,194.94,25.98z"/>
<path fill="#FFFFFF" d="M248.23,24.18c1.13-1.62,2.78-2.6,4.681-3.03C252.38,23.4,250.48,24.33,248.23,24.18z"/>
<path fill="#302663" d="M202.45,27.43c5.109-5.02,13.3-5.61,19.55-2.48c-2.88,3.57-5.58,7.38-7.141,11.73
	c-1.5,4.02-2.279,8.28-2.399,12.56c-4.391-0.81-9.3-1.78-12.11-5.63C196.5,38.77,198.1,31.4,202.45,27.43z"/>
<path fill="#FFFFFF" d="M222,24.95c7.109,3.92,12.51,10.14,17.56,16.35c-6.46,5.59-13.859,11.66-15.17,20.66
	c-0.89,4.16,1.3,7.87,3.59,11.12c-2.229-0.64-4.63-0.99-6.63-2.23c-2.71-2.11-3.899-5.57-4.479-8.83
	c-0.67-4.42,1.77-8.63,1.34-13.03c-1.181-4.1-4.351-7.771-3.351-12.31C216.42,32.33,219.12,28.52,222,24.95z"/>
<path fill="#FFFFFF" d="M274.84,37.16c-1.43-2.81,0-5.85,1.84-8.05c2.3,1.55,4.64,3.02,7.021,4.43l0.149,0.09
	c1.83,4.31,3.34,8.84,3.58,13.55c0.03,2.15,0.04,4.3-0.06,6.45c-0.431,6.28-2.801,12.23-6.07,17.54c-5.021-1.46-9.7-3.96-13.71-7.31
	c0.149-1.57,0.67-3.14,0.399-4.72c-1.76-3.85-5.89-6.58-6.05-11.11c-0.3-3.64,0.061-8.37,3.641-10.35
	c4.109-1.87,8.399,0.48,11.439,3.23c2.04,1.26,4.23,4.03,6.84,2.72c1.891-1.83,0.351-4.36,0-6.48c-0.409,1.23-1.21,3.68-1.609,4.9
	c-0.66-1.8-1.32-3.59-1.99-5.39c-0.8,0.76-1.6,1.51-2.4,2.27C276.82,38.39,275.81,37.8,274.84,37.16z"/>
<path fill="#24AAE0" d="M212.46,49.24c0.12-4.28,0.899-8.54,2.399-12.56c-1,4.54,2.17,8.21,3.351,12.31
	c0.43,4.4-2.01,8.61-1.34,13.03c0.58,3.26,1.77,6.72,4.479,8.83c2,1.24,4.4,1.59,6.63,2.23c-2.29-3.25-4.479-6.96-3.59-11.12
	c1.311-9,8.71-15.07,15.17-20.66c7.59,9.43,14.59,19.51,23.96,27.32c-1.85,2.77-5.42,5.88-3.72,9.56c2.22,4.03,7.36,4.06,11.29,3.09
	c-13.38,9.32-32.75,8.4-45.15-2.21c-7.05-5.84-11.89-14.36-13.109-23.45C212.62,53.49,212.49,51.37,212.46,49.24z"/>
<path fill="#302663" d="M281.3,71.17c3.27-5.31,5.64-11.26,6.07-17.54c3.479,1.08,7.43,2.32,9.239,5.81
	c2.101,3.26,1.061,7.85-2.04,10.09C290.8,72.42,285.7,72.03,281.3,71.17z"/>
<path fill="#F4EC57" fill-opacity="0"  d="M0,58.993c2.069,48.96,18.72,97.23,47.74,136.76c23.729,32.61,55.46,59.35,91.63,77.18
	c31.09,15.431,65.439,23.971,100.08,25.561H0V58.993z"/>
<path fill="#F4EC57" fill-opacity="0"  d="M451.82,197.87C481.1,158.22,497.92,109.71,500,60.5V300H260.52c16.34-0.84,32.62-2.99,48.53-6.859
	C365.92,279.57,417.38,245.07,451.82,197.87z"/>
<path fill="#FFFFFF" d="M263.52,68.62c4.03,3.37,8.61,6.15,13.65,7.69c-1.97,1.72-3.891,3.51-6.08,4.96
	c-3.93,0.97-9.07,0.94-11.29-3.09C258.1,74.5,261.67,71.39,263.52,68.62z"/>
</svg>
